<?xml version="1.0" encoding="UTF-8" standalone="no"?>
<svg viewBox="0 0 254 194"
  xmlns="http://www.w3.org/2000/svg"
  xmlns:svg="http://www.w3.org/2000/svg">
  <path d="M0 114.713C0 97.0852 14.2901 55.255 31.9181 55.255C49.5461 55.255 63.8362 97.0852 63.8362 114.713C63.812 123.162 60.4385 131.257 54.4554 137.223C48.4722 143.189 40.3676 146.54 31.9182 146.54C23.4689 146.54 15.3643 143.189 9.38111 137.223C3.39796 131.257 0.0244891 123.162 0.000260308 114.713H0Z" fill="#E5E5E5" />
  <path d="M31.918 192.366C31.8484 192.366 31.7816 192.338 31.7324 192.289C31.6832 192.24 31.6555 192.173 31.6555 192.104V82.0608C31.6555 81.9912 31.6832 81.9244 31.7324 81.8752C31.7816 81.826 31.8484 81.7983 31.918 81.7983C31.9876 81.7983 32.0543 81.826 32.1036 81.8752C32.1528 81.9244 32.1804 81.9912 32.1804 82.0608V192.104C32.1804 192.173 32.1528 192.24 32.1036 192.289C32.0543 192.338 31.9876 192.366 31.918 192.366Z" fill="#CCCCCC" />
  <path d="M31.9181 103.305C31.8485 103.305 31.7818 103.278 31.7325 103.228L19.0993 90.5954C19.0515 90.5459 19.025 90.4796 19.0256 90.4108C19.0262 90.342 19.0538 90.2762 19.1025 90.2275C19.1512 90.1788 19.217 90.1512 19.2858 90.1506C19.3546 90.15 19.4209 90.1765 19.4704 90.2243L32.1037 102.857C32.1403 102.894 32.1653 102.941 32.1755 102.992C32.1856 103.043 32.1804 103.095 32.1605 103.143C32.1407 103.191 32.107 103.232 32.0639 103.261C32.0207 103.29 31.97 103.305 31.9181 103.305Z" fill="#CCCCCC" />
  <path d="M31.918 125.176C31.8661 125.176 31.8154 125.16 31.7723 125.131C31.7291 125.102 31.6955 125.061 31.6756 125.013C31.6558 124.966 31.6506 124.913 31.6607 124.862C31.6708 124.811 31.6958 124.764 31.7325 124.728L52.8889 103.571C52.9129 103.546 52.9414 103.526 52.9731 103.513C53.0047 103.499 53.0387 103.491 53.0732 103.491C53.1077 103.49 53.142 103.496 53.1741 103.509C53.2062 103.522 53.2355 103.54 53.2603 103.564C53.2851 103.588 53.3049 103.617 53.3187 103.649C53.3324 103.68 53.3398 103.714 53.3403 103.749C53.3409 103.783 53.3347 103.818 53.322 103.85C53.3093 103.882 53.2905 103.911 53.2665 103.936L53.26 103.942L32.1036 125.099C32.0544 125.148 31.9876 125.176 31.918 125.176V125.176Z" fill="#CCCCCC" />
  <path d="M40.91 172.213C40.91 167.697 44.5731 156.981 49.0918 156.981C53.6105 156.981 57.2738 167.696 57.2738 172.213C57.2738 174.383 56.4118 176.464 54.8774 177.998C53.343 179.532 51.2619 180.394 49.0919 180.394C46.9219 180.394 44.8409 179.532 43.3065 177.998C41.7721 176.464 40.91 174.383 40.91 172.213Z" fill="" />
  <path d="M49.0917 192.103C49.0739 192.103 49.0568 192.096 49.0442 192.084C49.0316 192.071 49.0245 192.054 49.0245 192.036V163.847C49.0245 163.838 49.0263 163.829 49.0297 163.821C49.033 163.813 49.038 163.806 49.0443 163.799C49.0505 163.793 49.0579 163.788 49.0661 163.785C49.0743 163.781 49.083 163.78 49.0919 163.78C49.1007 163.78 49.1094 163.781 49.1176 163.785C49.1258 163.788 49.1332 163.793 49.1395 163.799C49.1457 163.806 49.1507 163.813 49.154 163.821C49.1574 163.829 49.1592 163.838 49.1592 163.847V192.036C49.1592 192.054 49.1521 192.071 49.1395 192.084C49.1269 192.096 49.1098 192.103 49.092 192.103H49.0917Z" fill="#E6E6E6" />
  <path d="M49.0918 169.289C49.083 169.289 49.0743 169.287 49.0661 169.284C49.058 169.28 49.0505 169.275 49.0443 169.269L45.8059 166.033C45.7934 166.02 45.7864 166.003 45.7865 165.985C45.7866 165.968 45.7937 165.951 45.8063 165.938C45.8189 165.926 45.8359 165.918 45.8537 165.918C45.8715 165.918 45.8885 165.925 45.9012 165.938L49.1396 169.174C49.149 169.183 49.1554 169.195 49.158 169.208C49.1606 169.221 49.1592 169.235 49.1541 169.247C49.1491 169.26 49.1405 169.27 49.1294 169.277C49.1184 169.285 49.1054 169.289 49.0921 169.289H49.0918Z" fill="#E6E6E6" />
  <path d="M49.0917 174.892C49.0784 174.892 49.0654 174.888 49.0544 174.88C49.0433 174.873 49.0347 174.863 49.0297 174.85C49.0246 174.838 49.0232 174.825 49.0258 174.811C49.0284 174.798 49.0348 174.786 49.0442 174.777L54.4676 169.357C54.4802 169.345 54.4973 169.338 54.5151 169.338C54.5329 169.338 54.5501 169.345 54.5627 169.357C54.5753 169.37 54.5825 169.387 54.5825 169.405C54.5825 169.423 54.5754 169.44 54.5628 169.452L49.1392 174.872C49.133 174.878 49.1256 174.883 49.1174 174.887C49.1093 174.89 49.1005 174.892 49.0917 174.892Z" fill="#E6E6E6" />
  <path d="M44.7837 184.051C48.0456 190.101 54.9685 192.697 54.9685 192.697C54.9685 192.697 56.6028 185.486 53.3409 179.437C50.079 173.388 43.1561 170.791 43.1561 170.791C43.1561 170.791 41.5218 178.002 44.7837 184.051Z" fill="#2F2E41" />
  <path d="M47.0256 182.061C52.9147 185.604 55.1827 192.642 55.1827 192.642C55.1827 192.642 47.9027 193.935 42.0137 190.392C36.1246 186.848 33.8566 179.811 33.8566 179.811C33.8566 179.811 41.1366 178.518 47.0256 182.061Z" fill="" />
  <path d="M163.312 6.41443H126.568V6.93934H163.312V6.41443Z" fill="#F2F2F2" />
  <path d="M153.339 6.80811H152.814V11.6635H153.339V6.80811Z" fill="#F2F2F2" />
  <path d="M137.329 6.80811H136.804V11.6635H137.329V6.80811Z" fill="#F2F2F2" />
  <path d="M181.946 31.61H145.202V32.1349H181.946V31.61Z" fill="#F2F2F2" />
  <path d="M155.701 26.8859H155.176V31.7413H155.701V26.8859Z" fill="#F2F2F2" />
  <path d="M171.71 26.8859H171.185V31.7413H171.71V26.8859Z" fill="#F2F2F2" />
  <path d="M230.763 43.4204H194.019V43.9453H230.763V43.4204Z" fill="#F2F2F2" />
  <path d="M204.517 38.6963H203.992V43.5517H204.517V38.6963Z" fill="#F2F2F2" />
  <path d="M220.527 38.6963H220.002V43.5517H220.527V38.6963Z" fill="#F2F2F2" />
  <path d="M227.088 165.199H190.344V165.724H227.088V165.199Z" fill="#F2F2F2" />
  <path d="M200.843 160.475H200.318V165.33H200.843V160.475Z" fill="#F2F2F2" />
  <path d="M216.852 160.475H216.328V165.33H216.852V160.475Z" fill="#F2F2F2" />
  <path d="M164.362 80.9514H127.618V81.4763H164.362V80.9514Z" fill="#F2F2F2" />
  <path d="M138.116 76.2273H137.591V81.0827H138.116V76.2273Z" fill="#F2F2F2" />
  <path d="M154.126 76.2273H153.601V81.0827H154.126V76.2273Z" fill="#F2F2F2" />
  <path d="M175.91 144.203H139.166V144.728H175.91V144.203Z" fill="#F2F2F2" />
  <path d="M149.664 139.479H149.139V144.334H149.664V139.479Z" fill="#F2F2F2" />
  <path d="M165.674 139.479H165.149V144.334H165.674V139.479Z" fill="#F2F2F2" />
  <path d="M234.699 125.044H197.956V125.569H234.699V125.044Z" fill="#F2F2F2" />
  <path d="M208.454 120.32H207.929V125.175H208.454V120.32Z" fill="#F2F2F2" />
  <path d="M224.464 120.32H223.939V125.175H224.464V120.32Z" fill="#F2F2F2" />
  <path d="M163.703 180.415H235.353V179.9H164.219V154.899H229.329L232.492 148.31L232.027 148.087L229.005 154.384H163.703V180.415Z" fill="#2F2E41" />
  <path d="M225.816 193.044C222.827 193.044 220.404 190.62 220.404 187.631C220.404 184.642 222.827 182.219 225.816 182.219C228.806 182.219 231.229 184.642 231.229 187.631C231.229 190.62 228.806 193.044 225.816 193.044Z" fill="#3F3D56" />
  <path d="M172.466 193.044C169.477 193.044 167.053 190.62 167.053 187.631C167.053 184.642 169.477 182.219 172.466 182.219C175.455 182.219 177.878 184.642 177.878 187.631C177.878 190.62 175.455 193.044 172.466 193.044Z" fill="#3F3D56" />
  <path d="M109.579 76.0327C107.728 76.0327 106.228 74.5326 106.228 72.6822C106.228 70.8318 107.728 69.3317 109.579 69.3317C111.429 69.3317 112.929 70.8318 112.929 72.6822C112.929 74.5326 111.429 76.0327 109.579 76.0327Z" fill="#3F3D56" />
  <path d="M156.04 146.394H236.574L254 89.4352H138.094L138.199 89.7703L156.04 146.394ZM236.193 145.879H156.418L138.796 89.9506H253.303L236.193 145.879Z" fill="#2F2E41" />
  <path d="M162.326 143.43H233.063L248.368 92.9143H146.564L146.656 93.2117L162.326 143.43Z" fill="#F2F2F2" />
  <path d="M136.65 84.3463L137.148 84.2141L133.747 71.3936H113.96V71.9092H133.35L136.65 84.3463Z" fill="#2F2E41" />
  <path d="M143.886 106.703H248.369V107.218H143.886V106.703Z" fill="#2F2E41" />
  <path d="M149.869 125.694H242.559V126.209H149.869V125.694Z" fill="#2F2E41" />
  <path d="M195.79 89.6927H196.306V146.136H195.79V89.6927Z" fill="#2F2E41" />
  <path d="M172.712 89.6765L176.412 146.119L175.898 146.152L172.198 89.7102L172.712 89.6765Z" fill="#2F2E41" />
  <path d="M219.374 89.6759L219.888 89.7095L216.209 146.153L215.695 146.119L219.374 89.6759Z" fill="#2F2E41" />
  <path d="M253.268 192.519H18.1094V193.043H253.268V192.519Z" fill="#2F2E41" />
  <path d="M83.5257 11.926H46.7821V12.4509H83.5257V11.926Z" fill="#F2F2F2" />
  <path d="M73.5524 12.3197H73.0275V17.1751H73.5524V12.3197Z" fill="#F2F2F2" />
  <path d="M57.5426 12.3197H57.0177V17.1751H57.5426V12.3197Z" fill="#F2F2F2" />
  <path d="M120.532 63.6294H83.7881V64.1543H120.532V63.6294Z" fill="#F2F2F2" />
  <path d="M110.558 64.0229H110.034V68.8783H110.558V64.0229Z" fill="#F2F2F2" />
  <path d="M94.5488 64.0229H94.0239V68.8783H94.5488V64.0229Z" fill="#F2F2F2" />
  <path d="M58.0677 63.3669H21.3241V63.8919H58.0677V63.3669Z" fill="#F2F2F2" />
  <path d="M48.0942 63.7606H47.5693V68.616H48.0942V63.7606Z" fill="#F2F2F2" />
  <path d="M32.0846 63.7606H31.5597V68.616H32.0846V63.7606Z" fill="#F2F2F2" />
  <path d="M102.16 37.1216H65.4164V37.6465H102.16V37.1216Z" fill="#F2F2F2" />
  <path d="M75.9144 32.3973H75.3895V37.2527H75.9144V32.3973Z" fill="#F2F2F2" />
  <path d="M91.9242 32.3973H91.3993V37.2527H91.9242V32.3973Z" fill="#F2F2F2" />
  <path d="M54.2524 40.2053L61.2839 39.5658L65.7588 28.6949L57.7684 24.2184L54.2524 40.2053Z" fill="#FFB8B8" />
  <path d="M118.784 70.0492C119.018 69.4659 119.11 68.8353 119.052 68.2095C118.994 67.5837 118.789 66.9805 118.453 66.4497C118.116 65.9189 117.659 65.4756 117.118 65.1565C116.576 64.8373 115.967 64.6513 115.34 64.6139L104.422 63.9626L102.815 69.3101L114.054 72.3979C114.993 72.656 115.994 72.5591 116.867 72.126C117.739 71.6928 118.422 70.9536 118.784 70.0492Z" fill="#FFB8B8" />
  <path d="M107.061 72.488L106.941 62.4538L82.6906 58.5828L64.0085 37.1482C63.0365 36.033 61.6934 35.308 60.228 35.1076C58.7626 34.9071 57.2742 35.2448 56.0386 36.058C55.2905 36.5504 54.6596 37.2011 54.1905 37.9642C53.7215 38.7274 53.4257 39.5843 53.324 40.4743C53.2224 41.3644 53.3175 42.2659 53.6025 43.1152C53.8874 43.9645 54.3554 44.7408 54.9733 45.3893L70.3858 64.3639L107.061 72.488Z" fill="#575A89" />
  <path d="M48.8187 185.368H55.2111L71.0666 113.654L87.4925 135.808L97.0811 183.769H103.154L101.875 132.291L80.4609 77.2954H59.3661C53.6015 87.7321 49.0793 98.4906 54.2522 109.589L48.8187 185.368Z" fill="#2F2E41" />
  <path d="M93.1625 189.724C93.0918 189.95 93.0701 190.189 93.0989 190.424C93.1276 190.659 93.2061 190.886 93.3292 191.088C93.4523 191.291 93.6171 191.465 93.8126 191.599C94.0082 191.733 94.23 191.823 94.4633 191.865L110.105 194.642C110.724 194.755 111.362 194.638 111.9 194.313C112.437 193.988 112.838 193.477 113.025 192.877C113.207 192.304 113.182 191.685 112.953 191.128C112.724 190.572 112.307 190.114 111.774 189.835C108.335 188.068 105.375 185.494 103.148 182.332C101.429 183.934 99.5071 183.783 97.4667 182.603L95.3024 182.873L93.1625 189.724Z" fill="#2F2E41" />
  <path d="M45.859 189.724C45.7883 189.95 45.7667 190.189 45.7954 190.424C45.8242 190.659 45.9027 190.886 46.0258 191.088C46.1488 191.291 46.3136 191.465 46.5092 191.599C46.7047 191.733 46.9265 191.823 47.1598 191.865L62.802 194.642C63.4201 194.755 64.0582 194.638 64.596 194.313C65.1339 193.988 65.5342 193.477 65.7217 192.877C65.904 192.304 65.8785 191.685 65.6497 191.128C65.421 190.572 65.0035 190.114 64.4707 189.835C61.0314 188.068 58.0714 185.494 55.8443 182.332C54.1252 183.934 52.2037 183.783 50.1632 182.603L47.999 182.873L45.859 189.724Z" fill="#2F2E41" />
  <path d="M65.9183 32.6914C70.8609 32.6914 74.8676 28.6831 74.8676 23.7386C74.8676 18.7942 70.8609 14.7859 65.9183 14.7859C60.9757 14.7859 56.969 18.7942 56.969 23.7386C56.969 28.6831 60.9757 32.6914 65.9183 32.6914Z" fill="#FFB8B8" />
  <path d="M57.9279 79.6934L81.26 79.054L74.4079 57.4801C78.6661 50.651 74.3806 43.8288 68.3155 37.008L63.5212 33.8106L55.8504 33.1711C52.5292 36.7263 50.712 41.4292 50.7793 46.2947C50.9312 56.7135 52.7753 68.0554 57.9279 79.6934Z" fill="#575A89" />
  <path d="M111.535 94.2152C111.979 93.7709 112.311 93.2274 112.504 92.6293C112.698 92.0313 112.746 91.3959 112.645 90.7755C112.545 90.1551 112.298 89.5675 111.926 89.0611C111.554 88.5547 111.067 88.144 110.506 87.8628L100.724 82.9675L97.1437 87.2512L106.262 94.5131C107.024 95.1199 107.983 95.4249 108.955 95.37C109.928 95.315 110.846 94.904 111.535 94.2152Z" fill="#FFB8B8" />
  <path d="M99.7979 91.8437L103.633 82.5712L82.8604 69.4689L74.1136 42.4103C73.6585 41.0025 72.7087 39.8074 71.4403 39.0464C70.1719 38.2854 68.6707 38.0101 67.215 38.2715C66.3335 38.4298 65.4976 38.7798 64.7663 39.2968C64.0349 39.8138 63.426 40.4852 62.9826 41.2635C62.5392 42.0418 62.272 42.9081 62.2001 43.801C62.1281 44.694 62.2531 45.5918 62.5661 46.4312L69.2744 69.9414L99.7979 91.8437Z" fill="#575A89" />
  <path d="M51.2157 20.2215C51.2157 23.705 53.4772 29.0998 56.3296 31.4124C58.2488 32.9684 60.7852 32.9028 61.7631 30.7729C62.7663 28.588 66.2242 23.4522 72.3105 20.2215C80.4239 15.9147 69.4332 8.54651 61.7631 9.67001C55.9994 10.5143 51.2157 14.3941 51.2157 20.2215Z" fill="#2F2E41" />
  <path d="M56.6494 15.4255C60.1798 15.4255 63.0418 12.5624 63.0418 9.03068C63.0418 5.49892 60.1798 2.63586 56.6494 2.63586C53.119 2.63586 50.2571 5.49892 50.2571 9.03068C50.2571 12.5624 53.119 15.4255 56.6494 15.4255Z" fill="#2F2E41" />
  <path d="M64.0004 6.79252C63.9998 5.18034 63.3901 3.62795 62.2936 2.44652C61.197 1.26509 59.6946 0.5419 58.0875 0.421918C58.2464 0.410093 58.4051 0.397705 58.5669 0.397705C60.2623 0.397705 61.8882 1.07144 63.087 2.2707C64.2858 3.46996 64.9593 5.09651 64.9593 6.79252C64.9593 8.48854 64.2858 10.1151 63.087 11.3143C61.8882 12.5136 60.2623 13.1873 58.5669 13.1873C58.4051 13.1873 58.2464 13.1749 58.0875 13.1631C59.6946 13.0431 61.197 12.32 62.2936 11.1385C63.3901 9.95709 63.9998 8.40471 64.0004 6.79252Z" fill="#2F2E41" />
  <path d="M66.0782 26.9361C66.8725 26.9361 67.5164 26.0772 67.5164 25.0177C67.5164 23.9582 66.8725 23.0992 66.0782 23.0992C65.2838 23.0992 64.6399 23.9582 64.6399 25.0177C64.6399 26.0772 65.2838 26.9361 66.0782 26.9361Z" fill="#FFB8B8" />
</svg>