<?xml version="1.0" encoding="UTF-8"?>
<svg width="75px" height="75px" viewBox="0 0 75 75" version="1.1" xmlns="http://www.w3.org/2000/svg" xmlns:xlink="http://www.w3.org/1999/xlink">
    <title>standard_delivery</title>
    <defs>
        <path d="M12.7723838,38.1818182 L8.90909091,38.1818182 L8.90909091,15.2727273 L35.6363636,15.2727273 L36.9090909,17.8181818 L43.2727273,17.8181818 C45.3939394,21.1995661 49.6363636,26.7272727 49.6363636,26.7272727 L49.6363636,38.1818182 L45.6712092,38.1818182 C45.4627131,40.2857333 43.965332,42 41.3841442,42 C38.8029563,42 37.2112704,40.1872337 37.0990989,38.1818182 C36.9090909,38.1818182 37.119296,38.1818182 36.9090909,38.1818182 L35.6363636,38.1818182 L34.3636364,38.1818182 L21.5912525,38.1818182 C21.28247,40.3405508 19.4259367,42 17.1818182,42 C14.9376997,42 13.0811663,40.3405508 12.7723838,38.1818182 Z M21.2105337,35.642363 C20.4968322,34.134163 18.9611577,33.0909091 17.1818182,33.0909091 C15.4035082,33.0909091 13.8685813,34.1329561 13.1543423,35.6397455 M47.0909091,31.8181818 L47.0909091,35.6363636 C46.0795011,35.6363636 45.5951853,35.6363636 45.6379616,35.6363636 C44.7239947,33.9759831 43.3300331,33.13827 41.4560769,33.1232244 C39.4694084,33.1072739 38.0171342,33.944987 37.0992543,35.6363636 C37.137318,35.6363636 36.9090909,35.6363636 36.9090909,35.6363636 L36.9090909,20.3636364 L42,20.3636364 L47.0909091,28 L47.0909091,31.8181818 Z M46.2623624,26.7272727 L47.0924627,28 L39.4545455,28 L39.4545455,22.9090909 L43.6858354,22.9090909 L45.8624072,26.1617888 L46.2623624,26.7272727 Z M11.4545454,17.8181818 L34.3636364,17.8181818 L34.3636364,20.3636364 L34.3636364,35.6363637 L21.2076893,35.6363637 C21.2076893,35.6363637 21.1572089,35.6363637 21.0642423,35.6363637 C20.0792603,35.6363637 14.3250177,35.6363637 13.3091431,35.6363637 C13.2095256,35.6363637 13.1554719,35.6363637 13.1559471,35.6363637 L11.4545454,35.6363637 L11.4545454,17.8181818 Z M41.3636364,35.6363636 C42.4179982,35.6363636 43.2727273,36.4910928 43.2727273,37.5454545 C43.2727273,38.5998163 42.4179982,39.4545455 41.3636364,39.4545455 C40.3092746,39.4545455 39.4545455,38.5998163 39.4545455,37.5454545 C39.4545455,36.4910928 40.3092746,35.6363636 41.3636364,35.6363636 Z M17.1818182,35.6363636 C18.23618,35.6363636 19.0909091,36.4910928 19.0909091,37.5454545 C19.0909091,38.5998163 18.23618,39.4545455 17.1818182,39.4545455 C16.1274564,39.4545455 15.2727273,38.5998163 15.2727273,37.5454545 C15.2727273,36.4910928 16.1274564,35.6363636 17.1818182,35.6363636 Z M45.8624072,26.1617888 L44.4620148,24.1818182 L40.7272727,24.1818182 L40.7272727,26.7272727 L46.2408059,26.7272727 L45.8624072,26.1617888 L45.8624072,26.1617888 Z" id="path-1"></path>
    </defs>
    <g id="standard_delivery" stroke="none" stroke-width="1" fill="none" fill-rule="evenodd">
        <g id="icons/checkout/standard-delivery" transform="translate(10.000000, 8.000000)">
            <mask id="mask-2" fill="white">
                <use xlink:href="#path-1"></use>
            </mask>
            <use id="Mask" fill="#2D2D2D" xlink:href="#path-1"></use>
        </g>
    </g>
</svg>