<?xml version="1.0" encoding="UTF-8"?>
<svg width="75px" height="75px" viewBox="0 0 75 75" version="1.1" xmlns="http://www.w3.org/2000/svg" xmlns:xlink="http://www.w3.org/1999/xlink">
    <title>fallback-returns</title>
    <g id="fallback-returns" stroke="none" stroke-width="1" fill="none" fill-rule="evenodd">
        <g id="Group" transform="translate(10.000000, 9.000000)" fill="#2D2D2D">
            <g id="returns" transform="translate(12.833333, 12.833333)">
                <path d="M14.7116667,19.7166667 L17.4416667,21.9916667 L15.2637333,24.2666667 L9.1,18.2 L15.1666667,12.1333333 L17.4416667,14.4083333 L14.7116667,16.6833333 L30.3333333,16.6833333 L30.3333333,30.3333333 L0,30.3333333 L0,5.46758333 L4.55,0 L25.7833333,0 L30.3333333,5.46758333 L30.3333333,13.65 L27.3,13.65 L27.3,9.1 L3.03333333,9.1 L3.03333333,27.3 L27.3,27.3 L27.3,19.7166667 L14.7116667,19.7166667 Z M3.79166667,6.06666667 L13.65,6.06666667 L13.65,3.03333333 L6.06666667,3.03333333 L3.79166667,6.06666667 Z M26.5416667,6.06666667 L24.2666667,3.03333333 L16.6833333,3.03333333 L16.6833333,6.06666667 L26.5416667,6.06666667 Z" id="Shape"></path>
            </g>
        </g>
    </g>
</svg>