<svg xmlns="http://www.w3.org/2000/svg" viewBox="0 0 67 67" alt="Hanger icon"><path fill="#2d2d2d" fill-rule="evenodd" d="M32.8 7.4c4.1-.8 7.9 2.5 7.6 6.7l-.1 1.6c-.1 1.1.7 2 1.8 2.1s2-.7 2.1-1.8l.1-1.6C44.7 7.6 38.7 2.2 32 3.6l-.5.1c-3.4.7-6.2 3.2-7.2 6.5-.8 2.8-.3 5.8 1.3 8.1l1.8 2.5q1.2 1.8 1.2 3.9c0 2.1-.9 4.1-2.6 5.4L4.7 47.2a8.82 8.82 0 0 0-3.3 6.9c0 4.8 3.9 8.8 8.8 8.8h46.4a8.71 8.71 0 0 0 8.7-8.7c0-2.8-1.3-5.3-3.5-7L38 29.8c-.9-.6-2.1-.5-2.7.4s-.5 2.1.4 2.7l23.7 17.4c1.2.9 1.9 2.3 1.9 3.8 0 2.6-2.1 4.8-4.8 4.8H10.2A4.91 4.91 0 0 1 5.3 54v-.6h41.6c1.1 0 1.9-.9 1.9-1.9 0-1.1-.9-1.9-1.9-1.9h-39l20.6-16.5c2.5-2 4-5.1 4-8.4 0-2.2-.7-4.4-1.9-6.2L28.8 16c-1-1.4-1.3-3.1-.8-4.8.6-2 2.2-3.4 4.2-3.8z"></path></svg>
