<svg xmlns="http://www.w3.org/2000/svg" viewBox="0 0 61 56" alt="Tshirt icon"><path fill="#2d2d2d" fill-rule="evenodd" d="M25.1 1.8c-.3-.1-.7-.2-1-.1-2.2.3-3.9.6-5.4 1.3-1.6.6-2.9 1.5-4.5 2.6-.2 0-.2 0-.3.1L2 16.9c-.8.8-.9 2.1-.2 3l6.9 8.5c.6.8 1.8 1 2.7.6l1.8-.9v24.2a2.22 2.22 0 0 0 2.2 2.2h30.8a2.22 2.22 0 0 0 2.2-2.2v-24l1 .6c.9.6 2.1.4 2.8-.5l7.2-8.5c.7-.9.7-2.2-.1-3L47.4 5.6l-.1-.1A26.7 26.7 0 0 0 43 3c-1.6-.6-3.3-1-5.6-1.4-.4-.1-.8 0-1.2.1-1.9.8-6.5 1.8-11.1.1m-3.3 3c-.8.2-1.5.4-2.1.7-1.3.5-2.4 1.2-3.9 2.3L4.3 18.6l6.2 7.7 2.3-1.1c.2-.1.4-.2.7-.2v-6.1c0-.8.6-1.5 1.3-1.5s1.3.7 1.3 1.5v32.8h29.4V18.8c0-.8.6-1.5 1.3-1.5s1.3.7 1.3 1.5V25c.3 0 .6.1.8.3l1.5.9 6.5-7.7L45.6 7.7A15.2 15.2 0 0 0 42 5.6c-.6-.3-1.4-.5-2.2-.7-1.5 2.8-3.2 4.6-5 5.7-2 1.2-4 1.3-5.9.8-1.8-.5-3.4-1.7-4.6-3-1-1.1-1.9-2.4-2.5-3.6m15.5-.3h-.2c-2.4.9-7.5 1.9-12.8 0 .5.8 1 1.6 1.7 2.3 1.1 1.1 2.3 2 3.6 2.4 1.2.4 2.6.3 4-.5 1.1-.8 2.4-2.1 3.7-4.2"></path></svg>